<svg xmlns="http://www.w3.org/2000/svg" viewBox="0 0 640 180" width="640" height="180">
  <rect width="640" height="180" rx="12" fill="#0d0d0f"/>
  <g transform="translate(18,8) scale(0.68)">
    <polygon points="50,192 78,192 93,116 65,116" fill="#7a5c1e"/>
    <polygon points="88,196 118,196 140,88 110,88" fill="#b5802a"/>
    <polygon points="126,200 158,200 188,52 156,52" fill="#f5a524"/>
    <polygon points="24,163 36,152 172,152 172,163" fill="#f5a524"/>
    <path d="M168,152 L180,116 L210,118 C218,119 222,122 225,126 L236,133 L227,141 L214,138 L223,148 L204,151 L186,156 L168,163 Z" fill="#f5a524"/>
  </g>
  <text x="204" y="98" font-family="'JetBrains Mono','Menlo','Consolas',monospace" font-size="54" font-weight="700" letter-spacing="2"><tspan fill="#f5a524">TRAP</tspan><tspan fill="#e7e5e4">HAWK</tspan></text>
  <text x="206" y="134" font-family="'JetBrains Mono','Menlo','Consolas',monospace" font-size="13" letter-spacing="5.5" fill="#71717a">EVERY PICK ON THE HOUSE LEDGER</text>
</svg>
