<svg xmlns="http://www.w3.org/2000/svg" viewBox="0 0 640 180" width="640" height="180">
  <rect width="640" height="180" rx="12" fill="#0d0d0f"/>
  <g transform="translate(20,10) scale(0.66)">
    <path d="M54,158 L130,82 L190,82
             C200,82 208,86 212,92
             C221,97 225,106 222,114
             C220,122 214,128 206,126
             L204,120
             C210,116 212,110 209,105
             L192,104
             L186,114 L180,104
             L172,100 L130,100 L54,176 Z" fill="#f5a524"/>
    <polygon points="50,204 50,190 114,126 114,140" fill="#f5a524" opacity="0.65"/>
    <polygon points="66,210 66,198 102,162 102,174" fill="#f5a524" opacity="0.4"/>
  </g>
  <text x="196" y="98" font-family="'JetBrains Mono','Menlo','Consolas',monospace" font-size="54" font-weight="700" letter-spacing="2"><tspan fill="#f5a524">TRAP</tspan><tspan fill="#e7e5e4">HAWK</tspan></text>
  <text x="198" y="134" font-family="'JetBrains Mono','Menlo','Consolas',monospace" font-size="13" letter-spacing="5.5" fill="#71717a">EVERY PICK ON THE HOUSE LEDGER</text>
</svg>
